<svg id="visual" viewBox="0 0 900 600" width="900" height="600" xmlns="http://www.w3.org/2000/svg" xmlns:xlink="http://www.w3.org/1999/xlink" version="1.1"><rect x="0" y="0" width="900" height="600" fill="#fef2f2"></rect><path d="M683 600L683.2 592.8C683.3 585.7 683.7 571.3 695.2 557C706.7 542.7 729.3 528.3 728.8 514C728.3 499.7 704.7 485.3 691.5 471.2C678.3 457 675.7 443 679 428.8C682.3 414.7 691.7 400.3 697.5 386C703.3 371.7 705.7 357.3 705.3 343C705 328.7 702 314.3 712.2 300C722.3 285.7 745.7 271.3 756.8 257C768 242.7 767 228.3 755.7 214C744.3 199.7 722.7 185.3 707.3 171.2C692 157 683 143 686 128.8C689 114.7 704 100.3 709.7 86C715.3 71.7 711.7 57.3 707.8 43C704 28.7 700 14.3 698 7.2L696 0L900 0L900 7.2C900 14.3 900 28.7 900 43C900 57.3 900 71.7 900 86C900 100.3 900 114.7 900 128.8C900 143 900 157 900 171.2C900 185.3 900 199.7 900 214C900 228.3 900 242.7 900 257C900 271.3 900 285.7 900 300C900 314.3 900 328.7 900 343C900 357.3 900 371.7 900 386C900 400.3 900 414.7 900 428.8C900 443 900 457 900 471.2C900 485.3 900 499.7 900 514C900 528.3 900 542.7 900 557C900 571.3 900 585.7 900 592.8L900 600Z" fill="#ffffff" stroke-linecap="round" stroke-linejoin="miter"></path></svg>