<svg id="visual" viewBox="0 0 900 600" width="900" height="600" xmlns="http://www.w3.org/2000/svg" xmlns:xlink="http://www.w3.org/1999/xlink" version="1.1"><rect x="0" y="0" width="900" height="600" fill="#FFFFFF"></rect><defs><linearGradient id="grad1_0" x1="33.3%" y1="0%" x2="100%" y2="100%"><stop offset="20%" stop-color="#ffffff" stop-opacity="1"></stop><stop offset="80%" stop-color="#ffffff" stop-opacity="1"></stop></linearGradient></defs><defs><linearGradient id="grad2_0" x1="0%" y1="0%" x2="66.7%" y2="100%"><stop offset="20%" stop-color="#ffffff" stop-opacity="1"></stop><stop offset="80%" stop-color="#ffffff" stop-opacity="1"></stop></linearGradient></defs><g transform="translate(900, 0)"><path d="M0 216.3C-22.6 202.4 -45.2 188.4 -75 181.1C-104.8 173.8 -141.7 173.1 -153 153C-164.2 132.9 -149.9 93.4 -156.1 64.7C-162.4 35.9 -189.4 18 -216.3 0L0 0Z" fill="#fef2f2"></path></g><g transform="translate(0, 600)"><path d="M0 -216.3C15.4 -185.9 30.8 -155.4 62.4 -150.6C93.9 -145.8 141.5 -166.7 153 -153C164.4 -139.3 139.6 -91 144.1 -59.7C148.6 -28.4 182.5 -14.2 216.3 0L0 0Z" fill="#fef2f2"></path></g></svg>