<svg id="visual" viewBox="0 0 900 600" width="900" height="600" xmlns="http://www.w3.org/2000/svg" xmlns:xlink="http://www.w3.org/1999/xlink" version="1.1"><rect x="0" y="0" width="900" height="600" fill="#fff"></rect><path d="M0 446L21.5 442C43 438 86 430 128.8 419.5C171.7 409 214.3 396 257.2 386.2C300 376.3 343 369.7 385.8 370.2C428.7 370.7 471.3 378.3 514.2 384.2C557 390 600 394 642.8 402.7C685.7 411.3 728.3 424.7 771.2 419.8C814 415 857 392 878.5 380.5L900 369L900 601L878.5 601C857 601 814 601 771.2 601C728.3 601 685.7 601 642.8 601C600 601 557 601 514.2 601C471.3 601 428.7 601 385.8 601C343 601 300 601 257.2 601C214.3 601 171.7 601 128.8 601C86 601 43 601 21.5 601L0 601Z" fill="#f45050"></path><path d="M0 418L21.5 415C43 412 86 406 128.8 408.5C171.7 411 214.3 422 257.2 429.2C300 436.3 343 439.7 385.8 436.2C428.7 432.7 471.3 422.3 514.2 417.2C557 412 600 412 642.8 416.8C685.7 421.7 728.3 431.3 771.2 435.5C814 439.7 857 438.3 878.5 437.7L900 437L900 601L878.5 601C857 601 814 601 771.2 601C728.3 601 685.7 601 642.8 601C600 601 557 601 514.2 601C471.3 601 428.7 601 385.8 601C343 601 300 601 257.2 601C214.3 601 171.7 601 128.8 601C86 601 43 601 21.5 601L0 601Z" fill="#fc8179"></path><path d="M0 509L21.5 500C43 491 86 473 128.8 466.2C171.7 459.3 214.3 463.7 257.2 471.5C300 479.3 343 490.7 385.8 487.5C428.7 484.3 471.3 466.7 514.2 460.3C557 454 600 459 642.8 461.3C685.7 463.7 728.3 463.3 771.2 470C814 476.7 857 490.3 878.5 497.2L900 504L900 601L878.5 601C857 601 814 601 771.2 601C728.3 601 685.7 601 642.8 601C600 601 557 601 514.2 601C471.3 601 428.7 601 385.8 601C343 601 300 601 257.2 601C214.3 601 171.7 601 128.8 601C86 601 43 601 21.5 601L0 601Z" fill="#ffaca4"></path><path d="M0 483L21.5 486.3C43 489.7 86 496.3 128.8 502.3C171.7 508.3 214.3 513.7 257.2 510.7C300 507.7 343 496.3 385.8 496.7C428.7 497 471.3 509 514.2 517.2C557 525.3 600 529.7 642.8 532.2C685.7 534.7 728.3 535.3 771.2 530.3C814 525.3 857 514.7 878.5 509.3L900 504L900 601L878.5 601C857 601 814 601 771.2 601C728.3 601 685.7 601 642.8 601C600 601 557 601 514.2 601C471.3 601 428.7 601 385.8 601C343 601 300 601 257.2 601C214.3 601 171.7 601 128.8 601C86 601 43 601 21.5 601L0 601Z" fill="#ffd6d1"></path><path d="M0 567L21.5 566.7C43 566.3 86 565.7 128.8 561C171.7 556.3 214.3 547.7 257.2 546.7C300 545.7 343 552.3 385.8 556.8C428.7 561.3 471.3 563.7 514.2 562.8C557 562 600 558 642.8 552.2C685.7 546.3 728.3 538.7 771.2 540.3C814 542 857 553 878.5 558.5L900 564L900 601L878.5 601C857 601 814 601 771.2 601C728.3 601 685.7 601 642.8 601C600 601 557 601 514.2 601C471.3 601 428.7 601 385.8 601C343 601 300 601 257.2 601C214.3 601 171.7 601 128.8 601C86 601 43 601 21.5 601L0 601Z" fill="#ffffff"></path></svg>