<svg id="visual" viewBox="0 0 900 600" width="900" height="600" xmlns="http://www.w3.org/2000/svg" xmlns:xlink="http://www.w3.org/1999/xlink" version="1.1"><rect x="0" y="0" width="900" height="600" fill="#ffff"></rect><path d="M0 365L21.5 367C43 369 86 373 128.8 379C171.7 385 214.3 393 257.2 399.3C300 405.7 343 410.3 385.8 403.3C428.7 396.3 471.3 377.7 514.2 377.5C557 377.3 600 395.7 642.8 394.7C685.7 393.7 728.3 373.3 771.2 371.5C814 369.7 857 386.3 878.5 394.7L900 403L900 601L878.5 601C857 601 814 601 771.2 601C728.3 601 685.7 601 642.8 601C600 601 557 601 514.2 601C471.3 601 428.7 601 385.8 601C343 601 300 601 257.2 601C214.3 601 171.7 601 128.8 601C86 601 43 601 21.5 601L0 601Z" fill="#f45050"></path><path d="M0 409L21.5 408.8C43 408.7 86 408.3 128.8 415.3C171.7 422.3 214.3 436.7 257.2 436C300 435.3 343 419.7 385.8 410.2C428.7 400.7 471.3 397.3 514.2 400.3C557 403.3 600 412.7 642.8 426.3C685.7 440 728.3 458 771.2 467.2C814 476.3 857 476.7 878.5 476.8L900 477L900 601L878.5 601C857 601 814 601 771.2 601C728.3 601 685.7 601 642.8 601C600 601 557 601 514.2 601C471.3 601 428.7 601 385.8 601C343 601 300 601 257.2 601C214.3 601 171.7 601 128.8 601C86 601 43 601 21.5 601L0 601Z" fill="#fc8179"></path><path d="M0 502L21.5 502.7C43 503.3 86 504.7 128.8 499C171.7 493.3 214.3 480.7 257.2 474.5C300 468.3 343 468.7 385.8 465C428.7 461.3 471.3 453.7 514.2 452C557 450.3 600 454.7 642.8 461.5C685.7 468.3 728.3 477.7 771.2 476.3C814 475 857 463 878.5 457L900 451L900 601L878.5 601C857 601 814 601 771.2 601C728.3 601 685.7 601 642.8 601C600 601 557 601 514.2 601C471.3 601 428.7 601 385.8 601C343 601 300 601 257.2 601C214.3 601 171.7 601 128.8 601C86 601 43 601 21.5 601L0 601Z" fill="#ffaca4"></path><path d="M0 510L21.5 511.8C43 513.7 86 517.3 128.8 520C171.7 522.7 214.3 524.3 257.2 527.8C300 531.3 343 536.7 385.8 535.5C428.7 534.3 471.3 526.7 514.2 526.2C557 525.7 600 532.3 642.8 534.8C685.7 537.3 728.3 535.7 771.2 535.3C814 535 857 536 878.5 536.5L900 537L900 601L878.5 601C857 601 814 601 771.2 601C728.3 601 685.7 601 642.8 601C600 601 557 601 514.2 601C471.3 601 428.7 601 385.8 601C343 601 300 601 257.2 601C214.3 601 171.7 601 128.8 601C86 601 43 601 21.5 601L0 601Z" fill="#ffd6d1"></path><path d="M0 527L21.5 533.5C43 540 86 553 128.8 558.3C171.7 563.7 214.3 561.3 257.2 562.2C300 563 343 567 385.8 567.8C428.7 568.7 471.3 566.3 514.2 560.3C557 554.3 600 544.7 642.8 543C685.7 541.3 728.3 547.7 771.2 549C814 550.3 857 546.7 878.5 544.8L900 543L900 601L878.5 601C857 601 814 601 771.2 601C728.3 601 685.7 601 642.8 601C600 601 557 601 514.2 601C471.3 601 428.7 601 385.8 601C343 601 300 601 257.2 601C214.3 601 171.7 601 128.8 601C86 601 43 601 21.5 601L0 601Z" fill="#ffffff"></path></svg>