<svg id="visual" viewBox="0 0 900 600" width="900" height="600" xmlns="http://www.w3.org/2000/svg" xmlns:xlink="http://www.w3.org/1999/xlink" version="1.1"><path d="M0 79L150 175L300 97L450 97L600 97L750 187L900 157L900 0L750 0L600 0L450 0L300 0L150 0L0 0Z" fill="#fff"></path><path d="M0 157L150 211L300 127L450 121L600 187L750 229L900 241L900 155L750 185L600 95L450 95L300 95L150 173L0 77Z" fill="#fef2f2"></path><path d="M0 181L150 223L300 139L450 169L600 217L750 241L900 271L900 239L750 227L600 185L450 119L300 125L150 209L0 155Z" fill="#fef2f2"></path><path d="M0 211L150 289L300 211L450 223L600 247L750 265L900 331L900 269L750 239L600 215L450 167L300 137L150 221L0 179Z" fill="#fef2f2"></path><path d="M0 259L150 319L300 259L450 259L600 295L750 289L900 361L900 329L750 263L600 245L450 221L300 209L150 287L0 209Z" fill="#fef2f2"></path><path d="M0 361L150 397L300 325L450 373L600 397L750 397L900 457L900 359L750 287L600 293L450 257L300 257L150 317L0 257Z" fill="#fef2f2"></path><path d="M0 397L150 433L300 367L450 415L600 427L750 451L900 481L900 455L750 395L600 395L450 371L300 323L150 395L0 359Z" fill="#fef2f2"></path><path d="M0 553L150 523L300 523L450 535L600 529L750 511L900 553L900 479L750 449L600 425L450 413L300 365L150 431L0 395Z" fill="#ffd0cf"></path><path d="M0 577L150 553L300 559L450 547L600 565L750 553L900 565L900 551L750 509L600 527L450 533L300 521L150 521L0 551Z" fill="#ffd0cf"></path><path d="M0 601L150 601L300 601L450 601L600 601L750 601L900 601L900 563L750 551L600 563L450 545L300 557L150 551L0 575Z" fill="#ffd0cf"></path></svg>